<svg version="1.1" id="Layer_1" xmlns="http://www.w3.org/2000/svg" xmlns:xlink="http://www.w3.org/1999/xlink" x="0px" y="0px"
	 width="100%" viewBox="0 0 572 531" disable-background="new 0 0 572 531" xml:space="preserve">
<path fill="#FEFFFF" opacity="1.000000" stroke="none" 
	d="
M573.000000,332.000000 
	C573.000000,355.687561 573.000000,379.375122 572.752319,403.604370 
	C572.346741,404.077423 572.188904,404.008820 572.031616,403.569946 
	C568.473389,392.664368 559.382935,386.532684 549.693787,388.132080 
	C538.938782,389.907440 532.039001,398.258881 532.020020,409.539062 
	C532.010437,415.205109 532.030273,420.871155 532.017090,426.537170 
	C531.930969,463.398376 505.623962,489.801971 468.684143,489.818634 
	C347.531097,489.873260 226.377991,489.855560 105.224968,489.782166 
	C100.090508,489.779053 94.825874,489.521484 89.843971,488.397797 
	C61.482361,482.000519 42.063366,457.786621 42.037895,428.525726 
	C41.943031,319.538086 41.983418,210.550262 42.064980,101.562576 
	C42.068184,97.277878 42.568130,92.885353 43.587185,88.727005 
	C50.655880,59.882690 74.627724,41.608578 105.535301,41.595398 
	C226.521698,41.543812 347.508240,41.520847 468.494354,41.708023 
	C475.707367,41.719181 483.221466,42.698975 490.074738,44.871040 
	C515.854492,53.041698 531.976135,76.372200 531.999084,104.728386 
	C532.057739,177.220215 532.018677,249.712112 532.021301,322.203979 
	C532.021362,324.203522 531.941345,326.211182 532.087585,328.201172 
	C532.767456,337.454407 539.373840,344.999878 548.279297,346.788818 
	C557.345703,348.610107 566.687866,343.995209 570.820862,335.696625 
	C571.456909,334.419434 572.269165,333.230011 573.000000,332.000000 
M115.889740,296.461273 
	C115.636978,286.659576 114.710312,276.817444 115.295876,267.066101 
	C116.092766,253.795563 119.789215,241.100327 127.503403,230.042740 
	C141.507797,209.968750 161.621399,204.126556 184.871750,206.385605 
	C199.153976,207.773285 210.306656,214.618790 218.295090,226.586136 
	C220.882843,230.462799 223.517517,234.310516 226.222046,238.106415 
	C232.686996,247.180191 245.240005,249.023590 254.078308,242.248016 
	C262.123718,236.080292 263.781189,226.566620 258.562866,215.156662 
	C251.169083,198.990051 238.444717,188.359009 222.250351,182.009033 
	C192.758331,170.444916 162.929947,171.183945 133.424973,181.782547 
	C106.354553,191.506653 88.306374,210.574982 79.113602,237.803802 
	C71.370964,260.737335 70.648544,284.216858 75.486115,307.756805 
	C80.152184,330.462250 90.788979,349.901764 109.463669,364.303345 
	C125.074791,376.342438 143.021820,382.283173 162.458801,384.289978 
	C195.792007,387.731506 226.561462,380.120728 255.103226,362.904419 
	C262.162170,358.646454 267.353516,352.763580 267.508972,344.156769 
	C267.815735,327.175720 268.291870,310.152740 267.435699,293.210876 
	C266.830536,281.235413 260.460968,275.502747 248.313385,275.021820 
	C229.684326,274.284332 211.018814,274.449402 192.368210,274.302460 
	C190.557449,274.288177 188.716324,274.652466 186.934494,275.045776 
	C179.310318,276.728668 174.460724,282.706085 174.428146,290.342377 
	C174.395920,297.895325 177.819321,302.273804 186.234756,304.026581 
	C191.400894,305.102509 196.785202,305.380890 202.084167,305.513458 
	C211.207932,305.741669 220.341553,305.576630 229.997559,305.576630 
	C229.997559,315.633881 229.892395,325.260498 230.064560,334.882111 
	C230.113327,337.606903 229.221863,338.933899 226.787415,340.179779 
	C213.764404,346.844727 200.177307,351.657532 185.521088,352.733398 
	C165.493637,354.203522 146.968506,350.731140 132.564377,335.146210 
	C122.693115,324.465759 118.164879,311.408630 115.889740,296.461273 
M348.493378,315.499878 
	C348.493317,319.165161 348.457916,322.830811 348.499542,326.495636 
	C348.650879,339.817566 348.405060,353.162262 349.129028,366.453674 
	C349.708862,377.099609 357.920532,384.601288 367.874817,384.963989 
	C379.435211,385.385162 386.968048,379.557983 389.134064,368.302887 
	C389.695923,365.383331 389.955994,362.362549 389.966553,359.386932 
	C390.037354,339.395264 390.003387,319.403198 390.003418,299.411285 
	C390.003418,297.286652 390.003418,295.162018 390.003418,292.578949 
	C392.312134,292.578949 394.104004,292.578979 395.895874,292.578949 
	C416.554199,292.578888 437.212524,292.592407 457.870789,292.558533 
	C460.024109,292.554993 462.209381,292.455231 464.324310,292.083862 
	C472.595490,290.631531 477.382294,284.562622 476.987091,276.221649 
	C476.598083,268.011139 471.373657,262.173981 462.608368,261.975098 
	C440.465393,261.472748 418.308929,261.565308 396.157867,261.422699 
	C394.231537,261.410309 392.305084,261.421051 390.312683,261.421051 
	C390.312683,243.693268 390.312683,226.629074 390.312683,209.163513 
	C392.408600,209.163513 394.211273,209.163498 396.013977,209.163498 
	C420.337494,209.163452 444.661133,209.208054 468.984314,209.116928 
	C472.783569,209.102707 476.670258,208.867691 480.358093,208.033997 
	C486.356812,206.677902 490.332062,201.685867 490.989319,195.624420 
	C491.795929,188.185379 489.353027,182.334793 483.077759,179.983688 
	C478.538483,178.283020 473.391479,177.561905 468.507721,177.528046 
	C438.021484,177.316574 407.533051,177.402390 377.045410,177.449448 
	C373.722321,177.454575 370.381836,177.688492 367.080322,178.078033 
	C356.030060,179.381790 350.083344,185.463028 349.003357,196.568054 
	C348.665375,200.043457 348.517700,203.550491 348.514374,207.043274 
	C348.480194,242.862106 348.493713,278.681000 348.493378,315.499878 
M328.406281,238.500107 
	C328.300201,223.681168 328.526001,208.850052 327.983490,194.047104 
	C327.546448,182.122711 319.761688,174.619019 308.494598,174.061798 
	C297.793457,173.532547 289.906799,180.087494 287.700562,191.477203 
	C287.260895,193.747131 287.030304,196.094833 287.028748,198.406906 
	C286.992584,252.198990 286.982544,305.991119 287.047424,359.783142 
	C287.051422,363.084595 287.413452,366.451385 288.125427,369.673645 
	C290.105133,378.633179 297.691162,384.765381 306.641113,384.974915 
	C316.754639,385.211670 324.503052,380.045502 326.913055,370.734406 
	C328.021729,366.451080 328.332153,361.861877 328.344086,357.409607 
	C328.449341,318.106659 328.406006,278.803345 328.406281,238.500107 
z"/>
<path fill="#019ED9" opacity="1.000000" stroke="none" 
	d="
M573.000000,331.750000 
	C572.269165,333.230011 571.456909,334.419434 570.820862,335.696625 
	C566.687866,343.995209 557.345703,348.610107 548.279297,346.788818 
	C539.373840,344.999878 532.767456,337.454407 532.087585,328.201172 
	C531.941345,326.211182 532.021362,324.203522 532.021301,322.203979 
	C532.018677,249.712112 532.057739,177.220215 531.999084,104.728386 
	C531.976135,76.372200 515.854492,53.041698 490.074738,44.871040 
	C483.221466,42.698975 475.707367,41.719181 468.494354,41.708023 
	C347.508240,41.520847 226.521698,41.543812 105.535301,41.595398 
	C74.627724,41.608578 50.655880,59.882690 43.587185,88.727005 
	C42.568130,92.885353 42.068184,97.277878 42.064980,101.562576 
	C41.983418,210.550262 41.943031,319.538086 42.037895,428.525726 
	C42.063366,457.786621 61.482361,482.000519 89.843971,488.397797 
	C94.825874,489.521484 100.090508,489.779053 105.224968,489.782166 
	C226.377991,489.855560 347.531097,489.873260 468.684143,489.818634 
	C505.623962,489.801971 531.930969,463.398376 532.017090,426.537170 
	C532.030273,420.871155 532.010437,415.205109 532.020020,409.539062 
	C532.039001,398.258881 538.938782,389.907440 549.693787,388.132080 
	C559.382935,386.532684 568.473389,392.664368 571.987915,404.041382 
	C571.960388,413.707672 571.929260,422.532776 572.038513,431.356201 
	C572.057739,432.907867 572.664551,434.452240 573.000000,436.000000 
	C573.000000,437.066681 573.000000,438.133331 572.658447,439.797455 
	C572.192810,441.044983 572.038391,441.690887 571.948914,442.345703 
	C564.708374,495.358521 517.808899,530.526306 471.448914,530.326721 
	C348.340668,529.796753 225.228653,530.151001 102.118141,530.129333 
	C97.790878,530.128601 93.414490,530.242493 89.144058,529.676331 
	C47.354263,524.136536 13.248992,492.796722 3.742075,451.386383 
	C2.868585,447.581604 1.915909,443.795044 1.000002,440.000000 
	C1.000000,438.933319 1.000000,437.866669 1.315638,436.121704 
	C1.759761,434.298767 2.000644,433.154114 2.000760,432.009430 
	C2.011777,323.234314 2.008617,214.459183 1.956857,105.684082 
	C1.956114,104.122566 1.332768,102.561356 0.999999,101.000000 
	C1.000000,97.307091 1.000000,93.614182 1.342162,89.277855 
	C8.987471,48.318829 31.617966,20.655642 70.084358,6.320984 
	C76.493782,3.932487 83.350159,2.743354 90.000000,1.000000 
	C221.020889,1.000000 352.041779,1.000000 483.727051,1.347937 
	C526.563232,7.326232 560.665344,38.548965 570.114624,80.184387 
	C571.083801,84.454582 572.038513,88.728058 573.000000,93.000000 
	C573.000000,95.041664 573.000000,97.083336 572.692810,99.847931 
	C572.257263,101.715515 572.016907,102.860123 572.016602,104.004807 
	C571.997375,178.289368 571.992065,252.573944 572.037781,326.858490 
	C572.038635,328.239197 572.665344,329.619507 573.000000,331.000000 
	C573.000000,331.000000 573.000000,331.500000 573.000000,331.750000 
z"/>
<path fill="#F9FDFE" opacity="1.000000" stroke="none" 
	d="
M1.000002,440.468658 
	C1.915909,443.795044 2.868585,447.581604 3.742075,451.386383 
	C13.248992,492.796722 47.354263,524.136536 89.144058,529.676331 
	C93.414490,530.242493 97.790878,530.128601 102.118141,530.129333 
	C225.228653,530.151001 348.340668,529.796753 471.448914,530.326721 
	C517.808899,530.526306 564.708374,495.358521 571.948914,442.345703 
	C572.038391,441.690887 572.192810,441.044983 572.658447,440.197449 
	C573.000000,470.648895 573.000000,501.297821 573.000000,531.944580 
	C382.333313,531.942383 191.666656,531.942383 1.000000,531.942383 
	C1.000000,501.568909 1.000000,471.253113 1.000002,440.468658 
z"/>
<path fill="#FDFEFF" opacity="1.000000" stroke="none" 
	d="
M573.000000,92.531342 
	C572.038513,88.728058 571.083801,84.454582 570.114624,80.184387 
	C560.665344,38.548965 526.563232,7.326232 484.195709,1.347937 
	C513.594788,1.000000 543.189575,1.000000 573.000000,1.000000 
	C573.000000,31.353888 573.000000,61.708286 573.000000,92.531342 
z"/>
<path fill="#FDFEFF" opacity="1.000000" stroke="none" 
	d="
M89.531342,1.000000 
	C83.350159,2.743354 76.493782,3.932487 70.084358,6.320984 
	C31.617966,20.655642 8.987471,48.318829 1.342162,88.817215 
	C1.000000,59.739342 1.000000,30.478682 1.000000,1.000000 
	C30.353868,1.000000 59.708275,1.000000 89.531342,1.000000 
z"/>
<path fill="#21ABDE" opacity="1.000000" stroke="none" 
	d="
M0.999999,101.468658 
	C1.332768,102.561356 1.956114,104.122566 1.956857,105.684082 
	C2.008617,214.459183 2.011777,323.234314 2.000760,432.009430 
	C2.000644,433.154114 1.759761,434.298767 1.315638,435.721741 
	C1.000000,324.645782 1.000000,213.291550 0.999999,101.468658 
z"/>
<path fill="#1FA9DD" opacity="1.000000" stroke="none" 
	d="
M573.000000,330.531342 
	C572.665344,329.619507 572.038635,328.239197 572.037781,326.858490 
	C571.992065,252.573944 571.997375,178.289368 572.016602,104.004807 
	C572.016907,102.860123 572.257263,101.715515 572.692810,100.285431 
	C573.000000,176.687561 573.000000,253.375122 573.000000,330.531342 
z"/>
<path fill="#29ADDF" opacity="1.000000" stroke="none" 
	d="
M573.000000,435.531342 
	C572.664551,434.452240 572.057739,432.907867 572.038513,431.356201 
	C571.929260,422.532776 571.960388,413.707672 571.987427,404.411682 
	C572.188904,404.008820 572.346741,404.077423 572.752319,404.072998 
	C573.000000,414.354218 573.000000,424.708466 573.000000,435.531342 
z"/>
<path fill="#029FD9" opacity="1.000000" stroke="none" 
	d="
M115.938278,296.899445 
	C118.164879,311.408630 122.693115,324.465759 132.564377,335.146210 
	C146.968506,350.731140 165.493637,354.203522 185.521088,352.733398 
	C200.177307,351.657532 213.764404,346.844727 226.787415,340.179779 
	C229.221863,338.933899 230.113327,337.606903 230.064560,334.882111 
	C229.892395,325.260498 229.997559,315.633881 229.997559,305.576630 
	C220.341553,305.576630 211.207932,305.741669 202.084167,305.513458 
	C196.785202,305.380890 191.400894,305.102509 186.234756,304.026581 
	C177.819321,302.273804 174.395920,297.895325 174.428146,290.342377 
	C174.460724,282.706085 179.310318,276.728668 186.934494,275.045776 
	C188.716324,274.652466 190.557449,274.288177 192.368210,274.302460 
	C211.018814,274.449402 229.684326,274.284332 248.313385,275.021820 
	C260.460968,275.502747 266.830536,281.235413 267.435699,293.210876 
	C268.291870,310.152740 267.815735,327.175720 267.508972,344.156769 
	C267.353516,352.763580 262.162170,358.646454 255.103226,362.904419 
	C226.561462,380.120728 195.792007,387.731506 162.458801,384.289978 
	C143.021820,382.283173 125.074791,376.342438 109.463669,364.303345 
	C90.788979,349.901764 80.152184,330.462250 75.486115,307.756805 
	C70.648544,284.216858 71.370964,260.737335 79.113602,237.803802 
	C88.306374,210.574982 106.354553,191.506653 133.424973,181.782547 
	C162.929947,171.183945 192.758331,170.444916 222.250351,182.009033 
	C238.444717,188.359009 251.169083,198.990051 258.562866,215.156662 
	C263.781189,226.566620 262.123718,236.080292 254.078308,242.248016 
	C245.240005,249.023590 232.686996,247.180191 226.222046,238.106415 
	C223.517517,234.310516 220.882843,230.462799 218.295090,226.586136 
	C210.306656,214.618790 199.153976,207.773285 184.871750,206.385605 
	C161.621399,204.126556 141.507797,209.968750 127.503403,230.042740 
	C119.789215,241.100327 116.092766,253.795563 115.295876,267.066101 
	C114.710312,276.817444 115.636978,286.659576 115.938278,296.899445 
z"/>
<path fill="#039FD9" opacity="1.000000" stroke="none" 
	d="
M348.493652,314.999878 
	C348.493713,278.681000 348.480194,242.862106 348.514374,207.043274 
	C348.517700,203.550491 348.665375,200.043457 349.003357,196.568054 
	C350.083344,185.463028 356.030060,179.381790 367.080322,178.078033 
	C370.381836,177.688492 373.722321,177.454575 377.045410,177.449448 
	C407.533051,177.402390 438.021484,177.316574 468.507721,177.528046 
	C473.391479,177.561905 478.538483,178.283020 483.077759,179.983688 
	C489.353027,182.334793 491.795929,188.185379 490.989319,195.624420 
	C490.332062,201.685867 486.356812,206.677902 480.358093,208.033997 
	C476.670258,208.867691 472.783569,209.102707 468.984314,209.116928 
	C444.661133,209.208054 420.337494,209.163452 396.013977,209.163498 
	C394.211273,209.163498 392.408600,209.163513 390.312683,209.163513 
	C390.312683,226.629074 390.312683,243.693268 390.312683,261.421051 
	C392.305084,261.421051 394.231537,261.410309 396.157867,261.422699 
	C418.308929,261.565308 440.465393,261.472748 462.608368,261.975098 
	C471.373657,262.173981 476.598083,268.011139 476.987091,276.221649 
	C477.382294,284.562622 472.595490,290.631531 464.324310,292.083862 
	C462.209381,292.455231 460.024109,292.554993 457.870789,292.558533 
	C437.212524,292.592407 416.554199,292.578888 395.895874,292.578949 
	C394.104004,292.578979 392.312134,292.578949 390.003418,292.578949 
	C390.003418,295.162018 390.003418,297.286652 390.003418,299.411285 
	C390.003387,319.403198 390.037354,339.395264 389.966553,359.386932 
	C389.955994,362.362549 389.695923,365.383331 389.134064,368.302887 
	C386.968048,379.557983 379.435211,385.385162 367.874817,384.963989 
	C357.920532,384.601288 349.708862,377.099609 349.129028,366.453674 
	C348.405060,353.162262 348.650879,339.817566 348.499542,326.495636 
	C348.457916,322.830811 348.493317,319.165161 348.493652,314.999878 
z"/>
<path fill="#019ED9" opacity="1.000000" stroke="none" 
	d="
M328.406433,239.000122 
	C328.406006,278.803345 328.449341,318.106659 328.344086,357.409607 
	C328.332153,361.861877 328.021729,366.451080 326.913055,370.734406 
	C324.503052,380.045502 316.754639,385.211670 306.641113,384.974915 
	C297.691162,384.765381 290.105133,378.633179 288.125427,369.673645 
	C287.413452,366.451385 287.051422,363.084595 287.047424,359.783142 
	C286.982544,305.991119 286.992584,252.198990 287.028748,198.406906 
	C287.030304,196.094833 287.260895,193.747131 287.700562,191.477203 
	C289.906799,180.087494 297.793457,173.532547 308.494598,174.061798 
	C319.761688,174.619019 327.546448,182.122711 327.983490,194.047104 
	C328.526001,208.850052 328.300201,223.681168 328.406433,239.000122 
z"/>
</svg>