<?xml version="1.0" encoding="utf-8"?><svg viewBox="0 0 100 100" xmlns="http://www.w3.org/2000/svg" width="200px" height="200px" xmlns:xlink="http://www.w3.org/1999/xlink" style="width:100%;height:100%;background-size:initial;background-repeat:initial;background-position-y:initial;background-position-x:initial;background-origin:initial;background-image:initial;background-color:rgb(255, 255, 255);background-clip:initial;background-attachment:initial;animation-play-state:paused" ><g class="ldl-scale" style="transform-origin:50% 50%;transform:rotate(0deg) scale(0.8, 0.8);animation-play-state:paused" ><path fill="#e0e0e0" d="M77.5 28.8L61.2 12.5C60 11.3 59 10.8 58 10.8H22.6c-.9 0-1.7.8-1.7 1.7v75.1c0 .9.8 1.7 1.7 1.7h54.8c.9 0 1.7-.8 1.7-1.7V32c0-1-.5-2.1-1.6-3.2z" style="fill:rgb(224, 224, 224);animation-play-state:paused" ></path>
<path fill="#666766" d="M62.4 28.8h15.1L61.2 12.5v15.1c0 .6.6 1.2 1.2 1.2z" style="fill:rgb(102, 103, 102);animation-play-state:paused" ></path>
<path fill="#010101" d="M62.3 8.3c-.5-.5-1.2-.8-1.9-.8H22.6c-2.7 0-5 2.2-5 5v75.1c0 2.7 2.2 5 5 5h54.8c2.7 0 5-2.2 5-5V31.1c0-1.8-.7-3.4-1.9-4.7L62.3 8.3zm-1.1 4.2l16.2 16.2h-15c-.7 0-1.2-.5-1.2-1.2m17.9 60c0 .9-.8 1.7-1.7 1.7H22.6c-.9 0-1.7-.8-1.7-1.7v-75c0-.9.8-1.7 1.7-1.7H58v16.8c0 2.5 2 4.5 4.5 4.5h16.7v55.4z" style="fill:rgb(1, 1, 1);animation-play-state:paused" ></path>
<path d="M37.619 76.977c0 1.105-.038 3.847-3.048 3.847-3.009 0-3.048-2.742-3.048-3.847V65.243c0-1.143.039-3.886 3.048-3.886 3.01 0 3.048 2.743 3.048 3.886v.457h4v-.457c0-3.581-1.143-7.733-7.048-7.733-4.724 0-7.01 3.2-7.01 7.733v11.734c0 3.543 1.372 7.733 7.01 7.733 4.724 0 7.048-3.2 7.048-7.733v-7.772h-7.048v3.886h3.048zm15.886 3.39V61.853h4.8v-3.848H44.476v3.848h4.8v18.514h-4.952v3.848h14.057v-3.848zm20.838-7.352v-3.886h-8.419v-7.162h9.829v-3.962H61.695v26.21h4.229v-11.2z" style="animation-play-state:paused" ></path>
<metadata xmlns:d="https://loading.io/stock/" style="animation-play-state:paused" ><d:name style="animation-play-state:paused" >gif</d:name>
<d:tags style="animation-play-state:paused" >type,postfix,suffix,data,gif,file format</d:tags>
<d:license style="animation-play-state:paused" >by</d:license>
<d:slug style="animation-play-state:paused" >15x0yv</d:slug></metadata></g><!-- generated by https://loading.io/ --></svg>